<?xml version="1.0" encoding="UTF-8"?>
<svg width="700pt" height="700pt" version="1.1" viewBox="0 0 700 700" xmlns="http://www.w3.org/2000/svg">
 <path d="m409.71 280 207.93-207.93c16.484-16.484 16.484-43.227 0-59.711s-43.227-16.484-59.711 0l-207.93 207.93-207.93-207.93c-16.484-16.484-43.227-16.484-59.711 0s-16.484 43.227 0 59.711l207.93 207.93-207.93 207.93c-16.484 16.484-16.484 43.227 0 59.711 8.2266 8.2617 19.039 12.355 29.855 12.355 10.816 0 21.594-4.1289 29.855-12.355l207.93-207.93 207.93 207.93c8.2617 8.2617 19.039 12.355 29.855 12.355 10.816 0 21.594-4.1289 29.855-12.355 16.484-16.484 16.484-43.227 0-59.711l-207.93-207.93" fill-rule="evenodd"/>
</svg>
