<?xml version="1.0" encoding="utf-8"?>
<!-- Generator: Adobe Illustrator 24.2.3, SVG Export Plug-In . SVG Version: 6.00 Build 0)  -->
<svg version="1.1" id="图层_1" xmlns="http://www.w3.org/2000/svg" xmlns:xlink="http://www.w3.org/1999/xlink" x="0px" y="0px"
	 viewBox="0 0 448 358.4" style="enable-background:new 0 0 448 358.4;" xml:space="preserve">
<path d="M420,0c15.5,0,28,12.5,28,28s-12.5,28-28,28H28C12.5,56,0,43.5,0,28S12.5,0,28,0H420z M420,151.2c15.5,0,28,12.5,28,28
	s-12.5,28-28,28H28c-15.5,0-28-12.5-28-28s12.5-28,28-28H420z M420,302.4c15.5,0,28,12.5,28,28c0,15.5-12.5,28-28,28H28
	c-15.5,0-28-12.5-28-28c0-15.5,12.5-28,28-28H420z"/>
</svg>
